<svg width="64" height="64" xmlns="http://www.w3.org/2000/svg">

 <g>
  <title>background</title>
  <rect fill="none" id="canvas_background" height="402" width="582" y="-1" x="-1"/>
 </g>
 <g>
  <title>Layer 1</title>
  <path fill="#ffffff" id="svg_1" d="m45.73,64l-10.978,0c-0.715,0 -1.295,-0.173 -1.738,-0.52c-0.443,-0.346 -0.795,-0.757 -1.056,-1.234l-9.484,-16.565c-0.174,0.478 -0.369,0.888 -0.584,1.235l-8.835,15.33c-0.304,0.433 -0.661,0.834 -1.072,1.202s-0.942,0.552 -1.592,0.552l-10.264,0l15.233,-24.36l-14.648,-22.965l10.978,0c0.714,0 1.24,0.093 1.576,0.276c0.335,0.185 0.634,0.493 0.893,0.926l9.42,15.948c0.108,-0.28 0.232,-0.552 0.374,-0.812c0.14,-0.261 0.297,-0.53 0.471,-0.813l8.25,-14.161c0.304,-0.477 0.622,-0.823 0.958,-1.04c0.336,-0.217 0.752,-0.325 1.251,-0.325l10.524,0l-14.845,22.511l15.168,24.815z"/>
  <path fill="#ffffff" id="svg_2" d="m63.873,0l-9.898,23.332c-0.166,0.37 -0.369,0.641 -0.607,0.814c-0.238,0.171 -0.619,0.258 -1.144,0.258l-4.144,0l3.572,-7.503l-7.395,-16.901l4.894,0c0.43,0 0.76,0.095 0.992,0.286c0.232,0.192 0.402,0.417 0.51,0.679l3.037,7.986c0.285,0.728 0.518,1.472 0.696,2.233c0.131,-0.381 0.261,-0.761 0.394,-1.142c0.131,-0.382 0.268,-0.756 0.41,-1.126l2.751,-7.951c0.106,-0.272 0.298,-0.502 0.571,-0.687c0.273,-0.186 0.572,-0.278 0.894,-0.278l4.467,0z"/>
 </g>
</svg>