<svg id="Layer_1" data-name="Layer 1" xmlns="http://www.w3.org/2000/svg" viewBox="0 0 500 500"><defs><style>.cls-1{fill:#101010;}.cls-2{fill:#424242;}.cls-3{fill:#df9000;}</style></defs><title>icon</title><rect class="cls-1" x="59.33" y="5" width="381.34" height="490" rx="20.48"/><rect class="cls-2" x="88.03" y="205.92" width="92.26" height="70.73" rx="12"/><rect class="cls-2" x="203.87" y="205.92" width="92.26" height="70.73" rx="12"/><rect class="cls-2" x="318.68" y="205.92" width="92.26" height="70.73" rx="12"/><rect class="cls-2" x="88.03" y="298.18" width="92.26" height="70.73" rx="12"/><rect class="cls-2" x="203.87" y="298.18" width="92.26" height="70.73" rx="12"/><rect class="cls-2" x="318.68" y="298.18" width="92.26" height="70.73" rx="12"/><rect class="cls-2" x="87.01" y="391.46" width="92.26" height="70.73" rx="12"/><rect class="cls-2" x="202.85" y="391.46" width="92.26" height="70.73" rx="12"/><rect class="cls-2" x="317.66" y="391.46" width="92.26" height="70.73" rx="12"/><rect class="cls-3" x="88.03" y="40.88" width="321.88" height="134.29" rx="12"/><path d="M352.52,147.23q-5.07-5.23-5.07-14.6V100.86q0-9.4,5.09-14.63T367.39,81q9.81,0,14.87,5.19t5.07,14.65v31.77q0,9.42-5.09,14.63t-14.85,5.21Q357.6,152.47,352.52,147.23Zm22.53-6.8c1.65-1.8,2.48-4.41,2.48-7.8V100.86q0-5.08-2.45-7.8c-1.63-1.81-4.2-2.72-7.69-2.72s-6.05.91-7.69,2.72-2.45,4.41-2.45,7.8v31.77c0,3.39.83,6,2.48,7.8s4.2,2.72,7.66,2.72S373.4,142.25,375.05,140.43Z"/></svg>